<?xml version="1.0" standalone="no"?>
<!DOCTYPE svg PUBLIC "-//W3C//DTD SVG 20010904//EN"
 "http://www.w3.org/TR/2001/REC-SVG-20010904/DTD/svg10.dtd">
<svg version="1.0" xmlns="http://www.w3.org/2000/svg"
 width="700.000000pt" height="700.000000pt" viewBox="0 0 700.000000 700.000000"
 preserveAspectRatio="xMidYMid meet">
<metadata>
Created by potrace 1.11, written by Peter Selinger 2001-2013
</metadata>
<g transform="translate(0.000000,700.000000) scale(0.100000,-0.100000)"
fill="#000000" stroke="none">
<path d="M380 6984 c-183 -49 -317 -184 -366 -367 -12 -44 -14 -546 -13 -3117
0 -2909 1 -3068 18 -3131 49 -180 210 -328 392 -359 45 -8 959 -10 3134 -8
2930 3 3072 4 3110 21 106 48 135 66 195 127 71 71 121 159 139 248 8 38 11
915 10 3110 0 2923 -1 3060 -18 3125 -47 171 -192 312 -366 352 -92 22 -6154
21 -6235 -1z m6127 -443 c13 -1 25 -10 29 -23 4 -13 8 -305 8 -651 l1 -627
-3042 0 c-1674 0 -3043 3 -3044 8 0 4 -2 289 -2 634 -1 405 2 632 8 641 6 8
16 16 23 18 10 3 5952 4 6019 0z m31 -1768 c4 -6 7 -975 6 -2152 0 -2000 -2
-2142 -17 -2154 -14 -9 -646 -12 -3015 -10 -1648 0 -3007 2 -3019 2 -13 1 -24
10 -29 24 -4 12 -8 984 -8 2159 -1 2130 -1 2137 19 2140 11 2 1378 3 3038 2
2116 -1 3021 -4 3025 -11z"/>
<path d="M1070 6285 c-115 -31 -203 -103 -256 -211 -33 -65 -38 -86 -40 -157
-6 -181 95 -334 261 -393 149 -53 330 -7 435 112 137 157 128 398 -20 545
-100 99 -248 140 -380 104z"/>
<path d="M3445 3779 c-43 -12 -102 -64 -127 -112 -22 -41 -22 -52 -24 -422 -1
-209 -3 -383 -3 -387 -1 -4 -175 -8 -388 -10 -379 -3 -389 -4 -430 -25 -165
-88 -164 -318 1 -406 40 -21 52 -22 429 -25 213 -2 387 -6 388 -10 0 -4 2
-178 3 -387 2 -366 3 -381 23 -420 88 -166 307 -171 404 -10 l24 40 3 392 3
392 392 3 c346 3 396 5 422 20 83 47 127 119 127 208 0 114 -75 203 -190 225
-9 2 -182 4 -384 4 l-368 1 0 373 c0 414 -3 435 -63 497 -60 62 -155 85 -242
59z"/>
</g>
</svg>
